<mxfile host="Electron" agent="Mozilla/5.0 (Windows NT 10.0; Win64; x64) AppleWebKit/537.36 (KHTML, like Gecko) draw.io/27.0.5 Chrome/134.0.6998.205 Electron/35.3.0 Safari/537.36" version="27.0.5">
  <diagram name="Zattona" id="R9FFXnDSTnN5MJosL_C4">
    <mxGraphModel dx="1412" dy="-294" grid="1" gridSize="10" guides="1" tooltips="1" connect="1" arrows="1" fold="1" page="1" pageScale="1" pageWidth="827" pageHeight="1169" math="1" shadow="0">
      <root>
        <mxCell id="0" />
        <mxCell id="1" parent="0" />
        <mxCell id="cDIhrOQJnk7pQBuJnvhz-1" value="\[ P(x_i) = \begin{cases} p, &amp;amp; x_i = 1 \\ q:=1-p, &amp;amp; x_i = 0 \end{cases} \]" style="rounded=0;whiteSpace=wrap;html=1;strokeWidth=2;fillColor=#FFF2CC;strokeColor=#000000;container=0;fontSize=16;fontStyle=1;fontFamily=Mina;fontSource=https%3A%2F%2Ffonts.googleapis.com%2Fcss%3Ffamily%3DMina;spacingLeft=2;spacingRight=2;align=left;" parent="1" vertex="1">
          <mxGeometry x="202.98" y="1256.04" width="343" height="63.96" as="geometry" />
        </mxCell>
        <mxCell id="cDIhrOQJnk7pQBuJnvhz-2" value="&lt;div style=&quot;direction: ltr;&quot;&gt;&lt;span style=&quot;background-color: transparent; color: light-dark(rgb(0, 0, 0), rgb(255, 255, 255));&quot;&gt;\[ P(x) = \begin{cases} \binom{n}{x}\cdot p^x \cdot q^{n-x}, &amp;amp; x = 0,1,\cdots ,n \\ 0, &amp;amp; \text{otherwise} \end{cases} \]&lt;/span&gt;&lt;/div&gt;" style="rounded=0;whiteSpace=wrap;html=1;strokeWidth=2;fillColor=#D5E8D4;strokeColor=#000000;container=0;fontSize=16;fontStyle=1;fontFamily=Mina;fontSource=https%3A%2F%2Ffonts.googleapis.com%2Fcss%3Ffamily%3DMina;spacingLeft=2;spacingRight=2;align=left;" parent="1" vertex="1">
          <mxGeometry x="202.98" y="1320" width="343" height="70" as="geometry" />
        </mxCell>
        <mxCell id="cDIhrOQJnk7pQBuJnvhz-3" value="\[ P(x) = \begin{cases} q^{x-1} \cdot p, &amp;amp; x = 0,1,\cdots ,n \\ 0, &amp;amp; \text{otherwise} \end{cases} \]" style="rounded=0;whiteSpace=wrap;html=1;strokeWidth=2;fillColor=#E1D5E7;strokeColor=#000000;container=0;fontSize=16;fontStyle=1;fontFamily=Mina;fontSource=https%3A%2F%2Ffonts.googleapis.com%2Fcss%3Ffamily%3DMina;spacingLeft=2;spacingRight=2;align=left;" parent="1" vertex="1">
          <mxGeometry x="202.98" y="1390" width="343" height="62.08" as="geometry" />
        </mxCell>
        <mxCell id="cDIhrOQJnk7pQBuJnvhz-4" value="\[ P(x) = \begin{cases} \frac{\alpha^x}{x!} \cdot e^{-\alpha}, &amp;amp; x = 0,1,\cdots ,n \\ 0, &amp;amp; \text{otherwise} \end{cases} \]" style="rounded=0;whiteSpace=wrap;html=1;strokeWidth=2;fillColor=#D4E1F5;strokeColor=#000000;container=0;fontSize=16;fontStyle=1;fontFamily=Mina;fontSource=https%3A%2F%2Ffonts.googleapis.com%2Fcss%3Ffamily%3DMina;spacingLeft=2;spacingRight=2;align=left;" parent="1" vertex="1">
          <mxGeometry x="202.98" y="1452.08" width="343" height="62" as="geometry" />
        </mxCell>
        <mxCell id="cDIhrOQJnk7pQBuJnvhz-5" value="&lt;span style=&quot;font-weight: 700;&quot;&gt;`P(x)`&lt;/span&gt;" style="rounded=0;whiteSpace=wrap;html=1;strokeWidth=2;container=0;fontSize=16;fontFamily=Mina;fontSource=https%3A%2F%2Ffonts.googleapis.com%2Fcss%3Ffamily%3DMina;spacingLeft=2;spacingRight=2;fillColor=#eeeeee;strokeColor=#000000;" parent="1" vertex="1">
          <mxGeometry x="202.98" y="1220" width="343" height="36.04" as="geometry" />
        </mxCell>
        <mxCell id="cDIhrOQJnk7pQBuJnvhz-6" value="&lt;span style=&quot;font-size: 16px; font-weight: 700;&quot;&gt;Dist.&lt;/span&gt;" style="rounded=0;whiteSpace=wrap;html=1;strokeWidth=2;container=0;fontSize=16;fontFamily=Mina;fontSource=https%3A%2F%2Ffonts.googleapis.com%2Fcss%3Ffamily%3DMina;align=center;spacingLeft=2;spacingRight=2;fillColor=#eeeeee;strokeColor=#000000;" parent="1" vertex="1">
          <mxGeometry x="122.97999999999999" y="1220" width="80" height="36.04" as="geometry" />
        </mxCell>
        <mxCell id="cDIhrOQJnk7pQBuJnvhz-7" value="Bernoulli" style="rounded=0;whiteSpace=wrap;html=1;strokeWidth=2;fillColor=#FFF2CC;strokeColor=#000000;container=0;fontSize=16;fontStyle=1;fontFamily=Mina;fontSource=https%3A%2F%2Ffonts.googleapis.com%2Fcss%3Ffamily%3DMina;align=left;spacingLeft=2;spacingRight=2;" parent="1" vertex="1">
          <mxGeometry x="122.97999999999999" y="1256.04" width="80" height="63.96" as="geometry" />
        </mxCell>
        <mxCell id="cDIhrOQJnk7pQBuJnvhz-8" value="Binomial" style="rounded=0;whiteSpace=wrap;html=1;strokeWidth=2;fillColor=#D5E8D4;strokeColor=#000000;container=0;fontSize=16;fontStyle=1;fontFamily=Mina;fontSource=https%3A%2F%2Ffonts.googleapis.com%2Fcss%3Ffamily%3DMina;align=left;spacingLeft=2;spacingRight=2;" parent="1" vertex="1">
          <mxGeometry x="122.97999999999999" y="1320" width="80" height="70" as="geometry" />
        </mxCell>
        <mxCell id="cDIhrOQJnk7pQBuJnvhz-9" value="Geometric" style="rounded=0;whiteSpace=wrap;html=1;strokeWidth=2;fillColor=#E1D5E7;strokeColor=#000000;container=0;fontSize=16;fontStyle=1;fontFamily=Mina;fontSource=https%3A%2F%2Ffonts.googleapis.com%2Fcss%3Ffamily%3DMina;align=left;spacingLeft=2;spacingRight=2;" parent="1" vertex="1">
          <mxGeometry x="122.97999999999999" y="1390" width="80" height="62.08" as="geometry" />
        </mxCell>
        <mxCell id="cDIhrOQJnk7pQBuJnvhz-10" value="Poisson" style="rounded=0;whiteSpace=wrap;html=1;strokeWidth=2;fillColor=#D4E1F5;strokeColor=#000000;container=0;fontSize=16;fontStyle=1;fontFamily=Mina;fontSource=https%3A%2F%2Ffonts.googleapis.com%2Fcss%3Ffamily%3DMina;align=left;spacingLeft=2;spacingRight=2;" parent="1" vertex="1">
          <mxGeometry x="122.97999999999999" y="1452.08" width="80" height="61.92" as="geometry" />
        </mxCell>
        <mxCell id="cDIhrOQJnk7pQBuJnvhz-11" value="&lt;span style=&quot;font-weight: 700;&quot;&gt;`E(x_i)=\mu`&lt;/span&gt;" style="rounded=0;whiteSpace=wrap;html=1;strokeWidth=2;container=0;fontSize=15;fontFamily=Mina;fontSource=https%3A%2F%2Ffonts.googleapis.com%2Fcss%3Ffamily%3DMina;spacingLeft=2;spacingRight=2;fillColor=#eeeeee;strokeColor=#000000;" parent="1" vertex="1">
          <mxGeometry x="545.98" y="1220" width="90" height="36.04" as="geometry" />
        </mxCell>
        <mxCell id="cDIhrOQJnk7pQBuJnvhz-12" value="`p`" style="rounded=0;whiteSpace=wrap;html=1;strokeWidth=2;fillColor=#FFF2CC;strokeColor=#000000;container=0;fontSize=16;fontStyle=1;fontFamily=Mina;fontSource=https%3A%2F%2Ffonts.googleapis.com%2Fcss%3Ffamily%3DMina;spacingLeft=2;spacingRight=2;" parent="1" vertex="1">
          <mxGeometry x="545.98" y="1256.04" width="90" height="63.96" as="geometry" />
        </mxCell>
        <mxCell id="cDIhrOQJnk7pQBuJnvhz-13" value="&lt;b&gt;`V(x_i)`&lt;/b&gt;" style="rounded=0;whiteSpace=wrap;html=1;strokeWidth=2;container=0;fontSize=16;fontFamily=Mina;fontSource=https%3A%2F%2Ffonts.googleapis.com%2Fcss%3Ffamily%3DMina;spacingLeft=2;spacingRight=2;fillColor=#eeeeee;strokeColor=#000000;" parent="1" vertex="1">
          <mxGeometry x="636.06" y="1220" width="86.96" height="36.04" as="geometry" />
        </mxCell>
        <mxCell id="cDIhrOQJnk7pQBuJnvhz-14" value="`p \cdot q`" style="rounded=0;whiteSpace=wrap;html=1;strokeWidth=2;fillColor=#FFF2CC;strokeColor=#000000;container=0;fontSize=16;fontStyle=1;fontFamily=Mina;fontSource=https%3A%2F%2Ffonts.googleapis.com%2Fcss%3Ffamily%3DMina;spacingLeft=2;spacingRight=2;" parent="1" vertex="1">
          <mxGeometry x="636.02" y="1256.04" width="87" height="63.96" as="geometry" />
        </mxCell>
        <mxCell id="cDIhrOQJnk7pQBuJnvhz-15" value="&lt;span style=&quot;font-size: 16px;&quot;&gt;`n \cdot p`&lt;/span&gt;" style="rounded=0;whiteSpace=wrap;html=1;strokeWidth=2;fillColor=#D5E8D4;strokeColor=#000000;container=0;fontSize=16;fontStyle=1;fontFamily=Mina;fontSource=https%3A%2F%2Ffonts.googleapis.com%2Fcss%3Ffamily%3DMina;spacingLeft=2;spacingRight=2;" parent="1" vertex="1">
          <mxGeometry x="545.98" y="1320" width="90" height="70" as="geometry" />
        </mxCell>
        <mxCell id="cDIhrOQJnk7pQBuJnvhz-16" value="&lt;span style=&quot;font-size: 16px;&quot;&gt;`\frac{1}{p}`&lt;/span&gt;" style="rounded=0;whiteSpace=wrap;html=1;strokeWidth=2;fillColor=#E1D5E7;strokeColor=#000000;container=0;fontSize=16;fontStyle=1;fontFamily=Mina;fontSource=https%3A%2F%2Ffonts.googleapis.com%2Fcss%3Ffamily%3DMina;spacingLeft=2;spacingRight=2;" parent="1" vertex="1">
          <mxGeometry x="545.98" y="1390" width="90" height="62" as="geometry" />
        </mxCell>
        <mxCell id="cDIhrOQJnk7pQBuJnvhz-17" value="&lt;span style=&quot;font-size: 16px;&quot;&gt;`\alpha = V(x)`&lt;/span&gt;" style="rounded=0;whiteSpace=wrap;html=1;strokeWidth=2;fillColor=#D4E1F5;strokeColor=#000000;container=0;fontSize=16;fontStyle=1;fontFamily=Mina;fontSource=https%3A%2F%2Ffonts.googleapis.com%2Fcss%3Ffamily%3DMina;spacingLeft=2;spacingRight=2;" parent="1" vertex="1">
          <mxGeometry x="545.94" y="1452.08" width="90.04" height="61.92" as="geometry" />
        </mxCell>
        <mxCell id="cDIhrOQJnk7pQBuJnvhz-18" value="&lt;span style=&quot;font-size: 16px;&quot;&gt;`n\cdot p\cdot q`&lt;/span&gt;" style="rounded=0;whiteSpace=wrap;html=1;strokeWidth=2;fillColor=#D5E8D4;strokeColor=#000000;container=0;fontSize=16;fontStyle=1;fontFamily=Mina;fontSource=https%3A%2F%2Ffonts.googleapis.com%2Fcss%3Ffamily%3DMina;spacingLeft=2;spacingRight=2;" parent="1" vertex="1">
          <mxGeometry x="635.98" y="1320" width="87.04" height="70" as="geometry" />
        </mxCell>
        <mxCell id="cDIhrOQJnk7pQBuJnvhz-19" value="&lt;span style=&quot;font-size: 16px;&quot;&gt;`\frac{q}{p^2}`&lt;/span&gt;" style="rounded=0;whiteSpace=wrap;html=1;strokeWidth=2;fillColor=#E1D5E7;strokeColor=#000000;container=0;fontSize=16;fontStyle=1;fontFamily=Mina;fontSource=https%3A%2F%2Ffonts.googleapis.com%2Fcss%3Ffamily%3DMina;spacingLeft=2;spacingRight=2;" parent="1" vertex="1">
          <mxGeometry x="635.98" y="1390" width="87.04" height="62" as="geometry" />
        </mxCell>
        <mxCell id="cDIhrOQJnk7pQBuJnvhz-20" value="`\alpha = E(x)`" style="rounded=0;whiteSpace=wrap;html=1;strokeWidth=2;fillColor=#D4E1F5;strokeColor=#000000;container=0;fontSize=16;fontStyle=1;fontFamily=Mina;fontSource=https%3A%2F%2Ffonts.googleapis.com%2Fcss%3Ffamily%3DMina;spacingLeft=2;spacingRight=2;" parent="1" vertex="1">
          <mxGeometry x="636.02" y="1452" width="87" height="62" as="geometry" />
        </mxCell>
        <mxCell id="cDIhrOQJnk7pQBuJnvhz-26" value="Discrete" style="rounded=0;whiteSpace=wrap;html=1;strokeWidth=2;fillColor=#eeeeee;strokeColor=#000000;container=0;fontSize=22;fontStyle=1;fontFamily=Mina;fontSource=https%3A%2F%2Ffonts.googleapis.com%2Fcss%3Ffamily%3DMina;align=center;spacingLeft=2;spacingRight=2;flipV=0;flipH=1;horizontal=0;" parent="1" vertex="1">
          <mxGeometry x="85.97999999999999" y="1256.04" width="37" height="257.96" as="geometry" />
        </mxCell>
        <mxCell id="cDIhrOQJnk7pQBuJnvhz-27" value="\[ f(x) = \begin{cases} \frac{1}{b-a}, &amp;amp; a \le x \le b \\ 0, &amp;amp; \text{otherwise} \end{cases} \]" style="rounded=0;whiteSpace=wrap;html=1;strokeWidth=2;fillColor=#E6D0DE;strokeColor=#000000;container=0;fontSize=16;fontStyle=1;fontFamily=Mina;fontSource=https%3A%2F%2Ffonts.googleapis.com%2Fcss%3Ffamily%3DMina;spacingLeft=2;spacingRight=2;align=left;" parent="1" vertex="1">
          <mxGeometry x="202.98" y="1514.08" width="343" height="63.96" as="geometry" />
        </mxCell>
        <mxCell id="cDIhrOQJnk7pQBuJnvhz-28" value="&lt;div style=&quot;direction: ltr;&quot;&gt;\[ f(x) = \begin{cases} \lambda e^{-\lambda x}, &amp;amp; x\ge 0 \\ 0, &amp;amp; \text{otherwise} \end{cases} \]&lt;/div&gt;" style="rounded=0;whiteSpace=wrap;html=1;strokeWidth=2;fillColor=#F8CECC;strokeColor=#000000;container=0;fontSize=16;fontStyle=1;fontFamily=Mina;fontSource=https%3A%2F%2Ffonts.googleapis.com%2Fcss%3Ffamily%3DMina;spacingLeft=2;spacingRight=2;align=left;" parent="1" vertex="1">
          <mxGeometry x="202.98" y="1578.04" width="343" height="70" as="geometry" />
        </mxCell>
        <mxCell id="cDIhrOQJnk7pQBuJnvhz-29" value="\[ f(x)=\frac{1}{\sigma \sqrt{2 \pi}} \cdot e^{\frac{1}{2}(\frac{x-\mu}{\sigma})^2} \]" style="rounded=0;whiteSpace=wrap;html=1;strokeWidth=2;fillColor=#D5E8D4;strokeColor=#000000;container=0;fontSize=16;fontStyle=1;fontFamily=Mina;fontSource=https%3A%2F%2Ffonts.googleapis.com%2Fcss%3Ffamily%3DMina;spacingLeft=2;spacingRight=2;align=left;" parent="1" vertex="1">
          <mxGeometry x="202.98" y="1648.04" width="343" height="62.08" as="geometry" />
        </mxCell>
        <mxCell id="cDIhrOQJnk7pQBuJnvhz-31" value="Uniform" style="rounded=0;whiteSpace=wrap;html=1;strokeWidth=2;fillColor=#E6D0DE;strokeColor=#000000;container=0;fontSize=16;fontStyle=1;fontFamily=Mina;fontSource=https%3A%2F%2Ffonts.googleapis.com%2Fcss%3Ffamily%3DMina;align=left;spacingLeft=2;spacingRight=2;" parent="1" vertex="1">
          <mxGeometry x="122.97999999999999" y="1514.08" width="80" height="63.96" as="geometry" />
        </mxCell>
        <mxCell id="cDIhrOQJnk7pQBuJnvhz-32" value="Expo." style="rounded=0;whiteSpace=wrap;html=1;strokeWidth=2;fillColor=#F8CECC;strokeColor=#000000;container=0;fontSize=16;fontStyle=1;fontFamily=Mina;fontSource=https%3A%2F%2Ffonts.googleapis.com%2Fcss%3Ffamily%3DMina;align=left;spacingLeft=2;spacingRight=2;horizontal=1;" parent="1" vertex="1">
          <mxGeometry x="122.97999999999999" y="1578.04" width="80" height="70" as="geometry" />
        </mxCell>
        <mxCell id="cDIhrOQJnk7pQBuJnvhz-33" value="Normal" style="rounded=0;whiteSpace=wrap;html=1;strokeWidth=2;fillColor=#D5E8D4;strokeColor=#000000;container=0;fontSize=16;fontStyle=1;fontFamily=Mina;fontSource=https%3A%2F%2Ffonts.googleapis.com%2Fcss%3Ffamily%3DMina;align=left;spacingLeft=2;spacingRight=2;" parent="1" vertex="1">
          <mxGeometry x="122.97999999999999" y="1648.04" width="80" height="62.08" as="geometry" />
        </mxCell>
        <mxCell id="cDIhrOQJnk7pQBuJnvhz-35" value="`\frac{a+b}{2}`" style="rounded=0;whiteSpace=wrap;html=1;strokeWidth=2;fillColor=#E6D0DE;strokeColor=#000000;container=0;fontSize=16;fontStyle=1;fontFamily=Mina;fontSource=https%3A%2F%2Ffonts.googleapis.com%2Fcss%3Ffamily%3DMina;spacingLeft=2;spacingRight=2;" parent="1" vertex="1">
          <mxGeometry x="545.98" y="1514.08" width="90" height="63.96" as="geometry" />
        </mxCell>
        <mxCell id="cDIhrOQJnk7pQBuJnvhz-36" value="`\frac{(b-a)^2}{12}`" style="rounded=0;whiteSpace=wrap;html=1;strokeWidth=2;fillColor=#E6D0DE;strokeColor=#000000;container=0;fontSize=16;fontStyle=1;fontFamily=Mina;fontSource=https%3A%2F%2Ffonts.googleapis.com%2Fcss%3Ffamily%3DMina;spacingLeft=2;spacingRight=2;" parent="1" vertex="1">
          <mxGeometry x="636.02" y="1514.08" width="87" height="63.96" as="geometry" />
        </mxCell>
        <mxCell id="cDIhrOQJnk7pQBuJnvhz-37" value="`\frac{1}{\lambda}`" style="rounded=0;whiteSpace=wrap;html=1;strokeWidth=2;fillColor=#F8CECC;strokeColor=#000000;container=0;fontSize=16;fontStyle=1;fontFamily=Mina;fontSource=https%3A%2F%2Ffonts.googleapis.com%2Fcss%3Ffamily%3DMina;spacingLeft=2;spacingRight=2;" parent="1" vertex="1">
          <mxGeometry x="545.98" y="1578.04" width="90" height="70" as="geometry" />
        </mxCell>
        <mxCell id="cDIhrOQJnk7pQBuJnvhz-38" value="" style="rounded=0;whiteSpace=wrap;html=1;strokeWidth=2;fillColor=#D5E8D4;strokeColor=#000000;container=0;fontSize=16;fontStyle=1;fontFamily=Mina;fontSource=https%3A%2F%2Ffonts.googleapis.com%2Fcss%3Ffamily%3DMina;spacingLeft=2;spacingRight=2;" parent="1" vertex="1">
          <mxGeometry x="545.98" y="1648.04" width="90" height="62" as="geometry" />
        </mxCell>
        <mxCell id="cDIhrOQJnk7pQBuJnvhz-40" value="`\frac{1}{\lambda^2}`" style="rounded=0;whiteSpace=wrap;html=1;strokeWidth=2;fillColor=#F8CECC;strokeColor=#000000;container=0;fontSize=16;fontStyle=1;fontFamily=Mina;fontSource=https%3A%2F%2Ffonts.googleapis.com%2Fcss%3Ffamily%3DMina;spacingLeft=2;spacingRight=2;" parent="1" vertex="1">
          <mxGeometry x="635.98" y="1578.04" width="87.04" height="70" as="geometry" />
        </mxCell>
        <mxCell id="cDIhrOQJnk7pQBuJnvhz-41" value="" style="rounded=0;whiteSpace=wrap;html=1;strokeWidth=2;fillColor=#D5E8D4;strokeColor=#000000;container=0;fontSize=16;fontStyle=1;fontFamily=Mina;fontSource=https%3A%2F%2Ffonts.googleapis.com%2Fcss%3Ffamily%3DMina;spacingLeft=2;spacingRight=2;" parent="1" vertex="1">
          <mxGeometry x="635.98" y="1648.04" width="87.04" height="62" as="geometry" />
        </mxCell>
        <mxCell id="cDIhrOQJnk7pQBuJnvhz-43" value="Continuous" style="rounded=0;whiteSpace=wrap;html=1;strokeWidth=2;fillColor=#eeeeee;strokeColor=#000000;container=0;fontSize=22;fontStyle=1;fontFamily=Mina;fontSource=https%3A%2F%2Ffonts.googleapis.com%2Fcss%3Ffamily%3DMina;align=center;spacingLeft=2;spacingRight=2;flipV=0;flipH=1;horizontal=0;" parent="1" vertex="1">
          <mxGeometry x="85.97999999999999" y="1514.08" width="37" height="195.92" as="geometry" />
        </mxCell>
        <mxCell id="cDIhrOQJnk7pQBuJnvhz-44" style="rounded=0;orthogonalLoop=1;jettySize=auto;html=1;edgeStyle=orthogonalEdgeStyle;fillColor=#f5f5f5;strokeColor=#666666;endArrow=block;endFill=1;" parent="1" source="cDIhrOQJnk7pQBuJnvhz-48" target="cDIhrOQJnk7pQBuJnvhz-49" edge="1">
          <mxGeometry relative="1" as="geometry" />
        </mxCell>
        <mxCell id="cDIhrOQJnk7pQBuJnvhz-66" value="&lt;div style=&quot;line-height: 110%;&quot;&gt;&lt;font style=&quot;font-size: 8px;&quot; data-font-src=&quot;https://fonts.googleapis.com/css?family=Beiruti&quot; face=&quot;Beiruti&quot;&gt;هل انا عملت تجربة &lt;br&gt;واحدة بس؟&lt;/font&gt;&lt;/div&gt;" style="edgeLabel;html=1;align=center;verticalAlign=middle;resizable=0;points=[];" parent="cDIhrOQJnk7pQBuJnvhz-44" vertex="1" connectable="0">
          <mxGeometry x="0.3192" relative="1" as="geometry">
            <mxPoint y="13" as="offset" />
          </mxGeometry>
        </mxCell>
        <mxCell id="cDIhrOQJnk7pQBuJnvhz-45" style="rounded=0;orthogonalLoop=1;jettySize=auto;html=1;edgeStyle=orthogonalEdgeStyle;fillColor=#eeeeee;strokeColor=#36393d;endArrow=block;endFill=1;" parent="1" source="cDIhrOQJnk7pQBuJnvhz-48" target="cDIhrOQJnk7pQBuJnvhz-50" edge="1">
          <mxGeometry relative="1" as="geometry">
            <Array as="points">
              <mxPoint x="266" y="1950" />
              <mxPoint x="205" y="1950" />
            </Array>
          </mxGeometry>
        </mxCell>
        <mxCell id="cDIhrOQJnk7pQBuJnvhz-46" style="rounded=0;orthogonalLoop=1;jettySize=auto;html=1;edgeStyle=orthogonalEdgeStyle;fillColor=#f5f5f5;strokeColor=#666666;endArrow=block;endFill=1;" parent="1" source="cDIhrOQJnk7pQBuJnvhz-48" target="cDIhrOQJnk7pQBuJnvhz-51" edge="1">
          <mxGeometry relative="1" as="geometry">
            <Array as="points">
              <mxPoint x="266" y="1950" />
              <mxPoint x="326" y="1950" />
            </Array>
          </mxGeometry>
        </mxCell>
        <mxCell id="cDIhrOQJnk7pQBuJnvhz-65" value="&lt;font style=&quot;line-height: 130%; font-size: 8px;&quot; data-font-src=&quot;https://fonts.googleapis.com/css?family=Beiruti&quot; face=&quot;Beiruti&quot;&gt;هل انا مهتم بأول مرة&lt;br&gt;الحاجة دي تظهر؟&lt;/font&gt;" style="edgeLabel;html=1;align=center;verticalAlign=middle;resizable=0;points=[];" parent="cDIhrOQJnk7pQBuJnvhz-46" vertex="1" connectable="0">
          <mxGeometry x="0.6613" y="-1" relative="1" as="geometry">
            <mxPoint x="1" y="-10" as="offset" />
          </mxGeometry>
        </mxCell>
        <mxCell id="cDIhrOQJnk7pQBuJnvhz-47" style="rounded=0;orthogonalLoop=1;jettySize=auto;html=1;edgeStyle=orthogonalEdgeStyle;fillColor=#f5f5f5;strokeColor=#666666;endArrow=block;endFill=1;" parent="1" source="cDIhrOQJnk7pQBuJnvhz-48" target="cDIhrOQJnk7pQBuJnvhz-52" edge="1">
          <mxGeometry relative="1" as="geometry" />
        </mxCell>
        <mxCell id="cDIhrOQJnk7pQBuJnvhz-48" value="Discrete" style="text;html=1;align=center;verticalAlign=middle;whiteSpace=wrap;rounded=1;fontFamily=Mina;fontStyle=1;glass=0;sketch=1;curveFitting=1;jiggle=2;strokeColor=#666666;fillColor=#f5f5f5;fontColor=#333333;" parent="1" vertex="1">
          <mxGeometry x="231" y="1920" width="70" height="20" as="geometry" />
        </mxCell>
        <mxCell id="cDIhrOQJnk7pQBuJnvhz-49" value="Bernoulli" style="text;html=1;align=center;verticalAlign=middle;whiteSpace=wrap;rounded=0;fontFamily=Mina;fontStyle=1;fillColor=none;" parent="1" vertex="1">
          <mxGeometry x="110" y="2000" width="70" height="30" as="geometry" />
        </mxCell>
        <mxCell id="cDIhrOQJnk7pQBuJnvhz-50" value="Binomial" style="text;html=1;align=center;verticalAlign=middle;whiteSpace=wrap;rounded=0;fontFamily=Mina;fontStyle=1;fillColor=none;" parent="1" vertex="1">
          <mxGeometry x="170" y="2000" width="70" height="30" as="geometry" />
        </mxCell>
        <mxCell id="cDIhrOQJnk7pQBuJnvhz-51" value="Geometric" style="text;html=1;align=center;verticalAlign=middle;whiteSpace=wrap;rounded=0;fontFamily=Mina;fontStyle=1;fillColor=none;" parent="1" vertex="1">
          <mxGeometry x="286" y="2000" width="80" height="30" as="geometry" />
        </mxCell>
        <mxCell id="cDIhrOQJnk7pQBuJnvhz-52" value="Poisson" style="text;html=1;align=center;verticalAlign=middle;whiteSpace=wrap;rounded=0;fontFamily=Mina;fontStyle=1;fillColor=none;" parent="1" vertex="1">
          <mxGeometry x="351" y="2000" width="70" height="30" as="geometry" />
        </mxCell>
        <mxCell id="cDIhrOQJnk7pQBuJnvhz-53" style="rounded=0;orthogonalLoop=1;jettySize=auto;html=1;edgeStyle=orthogonalEdgeStyle;fillColor=#f5f5f5;strokeColor=#666666;endArrow=block;endFill=1;" parent="1" source="cDIhrOQJnk7pQBuJnvhz-56" target="cDIhrOQJnk7pQBuJnvhz-57" edge="1">
          <mxGeometry relative="1" as="geometry" />
        </mxCell>
        <mxCell id="cDIhrOQJnk7pQBuJnvhz-54" style="rounded=0;orthogonalLoop=1;jettySize=auto;html=1;edgeStyle=orthogonalEdgeStyle;fillColor=#f5f5f5;strokeColor=#666666;endArrow=block;endFill=1;" parent="1" source="cDIhrOQJnk7pQBuJnvhz-56" target="cDIhrOQJnk7pQBuJnvhz-58" edge="1">
          <mxGeometry relative="1" as="geometry">
            <Array as="points">
              <mxPoint x="529" y="1950" />
              <mxPoint x="529" y="1950" />
            </Array>
          </mxGeometry>
        </mxCell>
        <mxCell id="cDIhrOQJnk7pQBuJnvhz-55" style="rounded=0;orthogonalLoop=1;jettySize=auto;html=1;edgeStyle=orthogonalEdgeStyle;fillColor=#f5f5f5;strokeColor=#666666;endArrow=block;endFill=1;" parent="1" source="cDIhrOQJnk7pQBuJnvhz-56" target="cDIhrOQJnk7pQBuJnvhz-59" edge="1">
          <mxGeometry relative="1" as="geometry">
            <Array as="points">
              <mxPoint x="599" y="1930" />
            </Array>
          </mxGeometry>
        </mxCell>
        <mxCell id="cDIhrOQJnk7pQBuJnvhz-56" value="Continuous" style="text;html=1;align=center;verticalAlign=middle;whiteSpace=wrap;rounded=1;fontFamily=Mina;fontStyle=1;glass=0;sketch=1;curveFitting=1;jiggle=2;strokeColor=#666666;fillColor=#f5f5f5;fontColor=#333333;" parent="1" vertex="1">
          <mxGeometry x="499" y="1920" width="70" height="20" as="geometry" />
        </mxCell>
        <mxCell id="cDIhrOQJnk7pQBuJnvhz-57" value="Uniform" style="text;html=1;align=center;verticalAlign=middle;whiteSpace=wrap;rounded=0;fontFamily=Mina;fontStyle=1;fillColor=none;" parent="1" vertex="1">
          <mxGeometry x="421" y="2000" width="70" height="30" as="geometry" />
        </mxCell>
        <mxCell id="cDIhrOQJnk7pQBuJnvhz-58" value="Expo." style="text;html=1;align=center;verticalAlign=middle;whiteSpace=wrap;rounded=0;fontFamily=Mina;fontStyle=1;fillColor=none;" parent="1" vertex="1">
          <mxGeometry x="509" y="2000" width="50" height="30" as="geometry" />
        </mxCell>
        <mxCell id="cDIhrOQJnk7pQBuJnvhz-59" value="Normal" style="text;html=1;align=center;verticalAlign=middle;whiteSpace=wrap;rounded=0;fontFamily=Mina;fontStyle=1;fillColor=none;" parent="1" vertex="1">
          <mxGeometry x="569" y="2000" width="60" height="30" as="geometry" />
        </mxCell>
        <mxCell id="cDIhrOQJnk7pQBuJnvhz-61" style="edgeStyle=orthogonalEdgeStyle;rounded=0;orthogonalLoop=1;jettySize=auto;html=1;" parent="1" source="cDIhrOQJnk7pQBuJnvhz-60" target="cDIhrOQJnk7pQBuJnvhz-48" edge="1">
          <mxGeometry relative="1" as="geometry" />
        </mxCell>
        <mxCell id="cDIhrOQJnk7pQBuJnvhz-62" value="&amp;nbsp;أيوة&amp;nbsp;" style="edgeLabel;html=1;align=center;verticalAlign=middle;resizable=0;points=[];labelBackgroundColor=#B9E0A5;" parent="cDIhrOQJnk7pQBuJnvhz-61" vertex="1" connectable="0">
          <mxGeometry x="-0.4632" y="-3" relative="1" as="geometry">
            <mxPoint as="offset" />
          </mxGeometry>
        </mxCell>
        <mxCell id="cDIhrOQJnk7pQBuJnvhz-63" style="edgeStyle=orthogonalEdgeStyle;rounded=0;orthogonalLoop=1;jettySize=auto;html=1;" parent="1" source="cDIhrOQJnk7pQBuJnvhz-60" target="cDIhrOQJnk7pQBuJnvhz-56" edge="1">
          <mxGeometry relative="1" as="geometry" />
        </mxCell>
        <mxCell id="cDIhrOQJnk7pQBuJnvhz-64" value="&amp;nbsp;لأ&amp;nbsp;" style="edgeLabel;html=1;align=center;verticalAlign=middle;resizable=0;points=[];labelBackgroundColor=#F19C99;" parent="cDIhrOQJnk7pQBuJnvhz-63" vertex="1" connectable="0">
          <mxGeometry x="-0.5997" y="-1" relative="1" as="geometry">
            <mxPoint y="-1" as="offset" />
          </mxGeometry>
        </mxCell>
        <mxCell id="cDIhrOQJnk7pQBuJnvhz-60" value="هل حاجة أقدر أعدها؟" style="text;html=1;align=center;verticalAlign=middle;whiteSpace=wrap;rounded=1;fontFamily=Mina;fontStyle=1;glass=0;sketch=1;curveFitting=1;jiggle=2;strokeColor=none;fillColor=#f5f5f5;fontColor=#333333;" parent="1" vertex="1">
          <mxGeometry x="350" y="1890" width="109" height="20" as="geometry" />
        </mxCell>
      </root>
    </mxGraphModel>
  </diagram>
</mxfile>
